# Blender v3.6.0 OBJ File: 'tree.blend'
# www.blender.org
mtllib tree.mtl
o Cone.001
v 0.000000 0.814569 -0.250000
v 0.000000 -0.004505 -0.125000
v 0.000000 0.370495 -0.375000
v 0.024386 -0.004505 -0.122598
v 0.048773 0.814569 -0.245196
v 0.073159 0.370495 -0.367794
v 0.047835 -0.004505 -0.115485
v 0.095671 0.814569 -0.230970
v 0.069446 -0.004505 -0.103934
v 0.143506 0.370495 -0.346455
v 0.088388 -0.004505 -0.088388
v 0.138893 0.814569 -0.207867
v 0.208339 0.370495 -0.311801
v 0.103934 -0.004505 -0.069446
v 0.176777 0.814569 -0.176777
v 0.115485 -0.004505 -0.047835
v 0.265165 0.370495 -0.265165
v 0.122598 -0.004505 -0.024386
v 0.207867 0.814569 -0.138893
v 0.125000 -0.004505 0.000000
v 0.311801 0.370495 -0.208339
v 0.230970 0.814569 -0.095671
v 0.122598 -0.004505 0.024386
v 0.115485 -0.004505 0.047835
v 0.346455 0.370495 -0.143506
v 0.367794 0.370495 -0.073159
v 0.103934 -0.004505 0.069446
v 0.245196 0.814569 -0.048773
v 0.088388 -0.004505 0.088388
v 0.250000 0.814569 0.000000
v 0.375000 0.370495 0.000000
v 0.069446 -0.004505 0.103934
v 0.367794 0.370495 0.073159
v 0.047835 -0.004505 0.115485
v 0.245196 0.814569 0.048773
v 0.230970 0.814569 0.095671
v 0.024386 -0.004505 0.122598
v 0.346455 0.370495 0.143506
v 0.000000 -0.004505 0.125000
v 0.207867 0.814569 0.138893
v -0.024386 -0.004505 0.122598
v 0.311801 0.370495 0.208339
v 0.176777 0.814569 0.176777
v -0.047835 -0.004505 0.115485
v 0.265165 0.370495 0.265165
v -0.069446 -0.004505 0.103934
v 0.138893 0.814569 0.207867
v -0.088388 -0.004505 0.088388
v 0.208339 0.370495 0.311801
v 0.143506 0.370495 0.346455
v -0.103934 -0.004505 0.069446
v 0.095671 0.814569 0.230970
v -0.115485 -0.004505 0.047835
v 0.073159 0.370495 0.367794
v -0.122598 -0.004505 0.024386
v 0.048773 0.814569 0.245196
v 0.000000 0.370495 0.375000
v -0.125000 -0.004505 0.000000
v 0.000000 0.814569 0.250000
v -0.122598 -0.004505 -0.024386
v -0.073159 0.370495 0.367794
v -0.048773 0.814569 0.245196
v -0.115485 -0.004505 -0.047835
v -0.143506 0.370495 0.346455
v -0.103934 -0.004505 -0.069446
v -0.095671 0.814569 0.230970
v -0.088388 -0.004505 -0.088388
v -0.208339 0.370495 0.311801
v -0.069446 -0.004505 -0.103934
v -0.138893 0.814569 0.207867
v -0.176777 0.814569 0.176777
v -0.047835 -0.004505 -0.115485
v -0.265165 0.370495 0.265165
v -0.024386 -0.004505 -0.122598
v -0.311801 0.370495 0.208339
v -0.207867 0.814569 0.138893
v -0.346455 0.370495 0.143506
v -0.230970 0.814569 0.095671
v -0.245196 0.814569 0.048773
v -0.367794 0.370495 0.073159
v -0.250000 0.814569 0.000000
v -0.375000 0.370495 0.000000
v -0.245196 0.814569 -0.048773
v -0.367794 0.370495 -0.073159
v -0.346455 0.370495 -0.143506
v -0.230970 0.814569 -0.095671
v -0.311801 0.370495 -0.208339
v -0.207867 0.814569 -0.138893
v -0.265165 0.370495 -0.265165
v -0.176777 0.814569 -0.176777
v -0.138893 0.814569 -0.207867
v -0.208339 0.370495 -0.311801
v -0.095671 0.814569 -0.230970
v -0.143506 0.370495 -0.346455
v -0.073159 0.370495 -0.367794
v -0.048773 0.814569 -0.245196
v 0.000000 1.314569 0.000000
v 0.000000 0.814569 -0.152963
v 0.084982 0.814569 0.127184
v 0.058536 0.814569 0.141319
v 0.029842 0.814569 0.150024
v 0.029842 0.814569 -0.150024
v 0.058536 0.814569 -0.141319
v 0.150024 0.814569 -0.029842
v 0.152963 0.814569 0.000000
v 0.150024 0.814569 0.029842
v 0.141319 0.814569 0.058536
v 0.141319 0.814569 -0.058536
v 0.127184 0.814569 0.084982
v 0.108161 0.814569 0.108161
v 0.127184 0.814569 -0.084982
v 0.108161 0.814569 -0.108161
v 0.084982 0.814569 -0.127184
v -0.141319 0.814569 0.058536
v -0.150024 0.814569 0.029842
v -0.152963 0.814569 0.000000
v -0.150024 0.814569 -0.029842
v -0.108161 0.814569 -0.108161
v -0.127184 0.814569 -0.084982
v -0.141319 0.814569 -0.058536
v -0.108161 0.814569 0.108161
v -0.127184 0.814569 0.084982
v -0.058536 0.814569 -0.141319
v -0.084982 0.814569 -0.127184
v 0.000000 0.814569 0.152963
v -0.029842 0.814569 0.150024
v -0.058536 0.814569 0.141319
v -0.084982 0.814569 0.127184
v -0.029842 0.814569 -0.150024
v -0.024386 0.370495 -0.122598
v 0.024386 0.370495 -0.122598
v 0.000000 0.370495 -0.125000
v 0.047835 0.370495 0.115485
v 0.069446 0.370495 -0.103934
v 0.069446 0.370495 0.103934
v 0.047835 0.370495 -0.115485
v 0.103934 0.370495 0.069446
v 0.103934 0.370495 -0.069446
v 0.125000 0.370495 0.000000
v 0.122598 0.370495 0.024386
v 0.122598 0.370495 -0.024386
v 0.115485 0.370495 -0.047835
v 0.088388 0.370495 0.088388
v 0.115485 0.370495 0.047835
v 0.088388 0.370495 -0.088388
v -0.125000 0.370495 0.000000
v -0.122598 0.370495 -0.024386
v -0.122598 0.370495 0.024386
v -0.103934 0.370495 0.069446
v -0.103934 0.370495 -0.069446
v -0.088388 0.370495 0.088388
v -0.115485 0.370495 0.047835
v -0.115485 0.370495 -0.047835
v -0.069446 0.370495 0.103934
v -0.069446 0.370495 -0.103934
v -0.024386 0.370495 0.122598
v 0.024386 0.370495 0.122598
v 0.000000 0.370495 0.125000
v -0.047835 0.370495 0.115485
v -0.047835 0.370495 -0.115485
v -0.088388 0.370495 -0.088388
vt 0.250000 0.250000
vt 0.296822 0.485388
vt 0.250000 0.490000
vt 0.341844 0.471731
vt 0.383337 0.449553
vt 0.419706 0.419706
vt 0.449553 0.383337
vt 0.471731 0.341844
vt 0.485388 0.296822
vt 0.490000 0.250000
vt 0.485388 0.203178
vt 0.471731 0.158156
vt 0.449553 0.116663
vt 0.419706 0.080294
vt 0.383337 0.050447
vt 0.341844 0.028269
vt 0.296822 0.014612
vt 0.250000 0.010000
vt 0.203178 0.014612
vt 0.158156 0.028269
vt 0.116663 0.050447
vt 0.080294 0.080294
vt 0.050447 0.116663
vt 0.028269 0.158156
vt 0.014612 0.203178
vt 0.010000 0.250000
vt 0.014612 0.296822
vt 0.028269 0.341844
vt 0.050447 0.383337
vt 0.080294 0.419706
vt 0.116663 0.449553
vt 0.158156 0.471731
vt 0.603155 0.250000
vt 0.605977 0.221352
vt 0.514612 0.203178
vt 0.510000 0.250000
vt 0.514612 0.296822
vt 0.528269 0.341844
vt 0.550447 0.383337
vt 0.580294 0.419706
vt 0.616663 0.449553
vt 0.658156 0.471731
vt 0.703178 0.485388
vt 0.721352 0.394023
vt 0.693805 0.385667
vt 0.668418 0.372097
vt 0.646165 0.353835
vt 0.627903 0.331582
vt 0.614333 0.306195
vt 0.605977 0.278648
vt 0.750000 0.490000
vt 0.796822 0.485388
vt 0.841844 0.471731
vt 0.883337 0.449553
vt 0.919706 0.419706
vt 0.949553 0.383337
vt 0.971731 0.341844
vt 0.985388 0.296822
vt 0.990000 0.250000
vt 0.985388 0.203178
vt 0.971731 0.158156
vt 0.949553 0.116663
vt 0.919706 0.080294
vt 0.883337 0.050447
vt 0.841844 0.028269
vt 0.796822 0.014612
vt 0.750000 0.010000
vt 0.703178 0.014612
vt 0.658156 0.028269
vt 0.616663 0.050447
vt 0.580294 0.080294
vt 0.550447 0.116663
vt 0.528269 0.158156
vt 0.614333 0.193805
vt 0.627903 0.168418
vt 0.646165 0.146165
vt 0.668418 0.127903
vt 0.693805 0.114333
vt 0.721352 0.105977
vt 0.750000 0.103156
vt 0.778648 0.105977
vt 0.806195 0.114333
vt 0.831583 0.127903
vt 0.853835 0.146165
vt 0.872097 0.168418
vt 0.885667 0.193805
vt 0.894023 0.221352
vt 0.896845 0.250000
vt 0.894023 0.278648
vt 0.885667 0.306195
vt 0.872097 0.331583
vt 0.853835 0.353835
vt 0.831582 0.372097
vt 0.806195 0.385667
vt 0.778648 0.394023
vt 0.750000 0.396845
vt 0.203178 0.485388
vt 0.296822 0.485388
vt 0.250000 0.490000
vt 0.250000 0.347896
vt 0.269099 0.346015
vt 0.287463 0.340444
vt 0.341844 0.471731
vt 0.304388 0.331398
vt 0.383337 0.449553
vt 0.319223 0.319223
vt 0.419706 0.419706
vt 0.449553 0.383337
vt 0.331398 0.304388
vt 0.471731 0.341844
vt 0.340444 0.287463
vt 0.485388 0.296822
vt 0.346015 0.269099
vt 0.347896 0.250000
vt 0.490000 0.250000
vt 0.346015 0.230901
vt 0.485388 0.203178
vt 0.471731 0.158156
vt 0.340444 0.212537
vt 0.449553 0.116663
vt 0.331398 0.195612
vt 0.419706 0.080294
vt 0.319223 0.180777
vt 0.383337 0.050447
vt 0.304388 0.168602
vt 0.341844 0.028269
vt 0.287463 0.159556
vt 0.296822 0.014612
vt 0.269099 0.153985
vt 0.250000 0.152104
vt 0.250000 0.010000
vt 0.230901 0.153985
vt 0.203178 0.014612
vt 0.158156 0.028269
vt 0.212537 0.159556
vt 0.116663 0.050447
vt 0.195612 0.168602
vt 0.080294 0.080294
vt 0.180777 0.180777
vt 0.168602 0.195612
vt 0.050447 0.116663
vt 0.159556 0.212537
vt 0.028269 0.158156
vt 0.153985 0.230901
vt 0.014612 0.203178
vt 0.010000 0.250000
vt 0.152104 0.250000
vt 0.014612 0.296822
vt 0.153985 0.269099
vt 0.159556 0.287463
vt 0.028269 0.341844
vt 0.168602 0.304388
vt 0.050447 0.383337
vt 0.180777 0.319223
vt 0.080294 0.419706
vt 0.195612 0.331398
vt 0.116663 0.449553
vt 0.212537 0.340444
vt 0.158156 0.471731
vt 0.703178 0.485388
vt 0.750000 0.490000
vt 0.796822 0.485388
vt 0.841844 0.471731
vt 0.883337 0.449553
vt 0.919706 0.419706
vt 0.949553 0.383337
vt 0.971731 0.341844
vt 0.985388 0.296822
vt 0.990000 0.250000
vt 0.985388 0.203178
vt 0.971731 0.158156
vt 0.949553 0.116663
vt 0.919706 0.080294
vt 0.883337 0.050447
vt 0.841844 0.028269
vt 0.780615 0.176090
vt 0.794446 0.183482
vt 0.806569 0.193431
vt 0.816518 0.205554
vt 0.823910 0.219385
vt 0.828463 0.234393
vt 0.830000 0.250000
vt 0.828463 0.265607
vt 0.823910 0.280615
vt 0.816518 0.294446
vt 0.806569 0.306569
vt 0.794446 0.316518
vt 0.780615 0.323910
vt 0.765607 0.328463
vt 0.750000 0.330000
vt 0.734393 0.328463
vt 0.719385 0.323910
vt 0.658156 0.471731
vt 0.796822 0.014612
vt 0.750000 0.010000
vt 0.703178 0.014612
vt 0.658156 0.028269
vt 0.616663 0.050447
vt 0.580294 0.080294
vt 0.550447 0.116663
vt 0.528269 0.158156
vt 0.514612 0.203178
vt 0.510000 0.250000
vt 0.514612 0.296822
vt 0.528269 0.341844
vt 0.550447 0.383337
vt 0.580294 0.419706
vt 0.616663 0.449553
vt 0.705554 0.316518
vt 0.693431 0.306568
vt 0.683482 0.294446
vt 0.676090 0.280615
vt 0.671537 0.265607
vt 0.670000 0.250000
vt 0.671537 0.234393
vt 0.676090 0.219385
vt 0.683482 0.205554
vt 0.693431 0.193431
vt 0.705554 0.183482
vt 0.719385 0.176090
vt 0.734393 0.171537
vt 0.750000 0.170000
vt 0.765607 0.171537
vt 0.230901 0.346015
vt 0.203178 0.485388
vt 0.968750 0.875000
vt 0.968750 0.500000
vt 1.000000 0.500000
vt 1.000000 0.875000
vt 0.937500 0.875000
vt 0.937500 0.500000
vt 0.906250 0.875000
vt 0.906250 0.500000
vt 0.875000 0.875000
vt 0.875000 0.500000
vt 0.843750 0.875000
vt 0.843750 0.500000
vt 0.812500 0.875000
vt 0.812500 0.500000
vt 0.781250 0.875000
vt 0.781250 0.500000
vt 0.750000 0.875000
vt 0.750000 0.500000
vt 0.718750 0.875000
vt 0.718750 0.500000
vt 0.687500 0.875000
vt 0.687500 0.500000
vt 0.656250 0.875000
vt 0.656250 0.500000
vt 0.625000 0.875000
vt 0.625000 0.500000
vt 0.593750 0.875000
vt 0.593750 0.500000
vt 0.562500 0.875000
vt 0.562500 0.500000
vt 0.531250 0.875000
vt 0.531250 0.500000
vt 0.500000 0.875000
vt 0.500000 0.500000
vt 0.468750 0.875000
vt 0.468750 0.500000
vt 0.437500 0.875000
vt 0.437500 0.500000
vt 0.406250 0.875000
vt 0.406250 0.500000
vt 0.375000 0.875000
vt 0.375000 0.500000
vt 0.343750 0.875000
vt 0.343750 0.500000
vt 0.312500 0.875000
vt 0.312500 0.500000
vt 0.281250 0.875000
vt 0.281250 0.500000
vt 0.250000 0.875000
vt 0.250000 0.500000
vt 0.218750 0.875000
vt 0.218750 0.500000
vt 0.187500 0.875000
vt 0.187500 0.500000
vt 0.156250 0.875000
vt 0.156250 0.500000
vt 0.125000 0.875000
vt 0.125000 0.500000
vt 0.093750 0.875000
vt 0.093750 0.500000
vt 0.062500 0.875000
vt 0.062500 0.500000
vt 0.031250 0.875000
vt 0.031250 0.500000
vt 0.000000 0.875000
vt 0.000000 0.500000
vt 0.703178 0.485388
vt 0.750000 0.490000
vt 0.796822 0.485388
vt 0.841844 0.471731
vt 0.883337 0.449553
vt 0.919706 0.419706
vt 0.949553 0.383337
vt 0.971731 0.341844
vt 0.985388 0.296822
vt 0.990000 0.250000
vt 0.985388 0.203178
vt 0.971731 0.158156
vt 0.949553 0.116663
vt 0.919706 0.080294
vt 0.883337 0.050447
vt 0.841844 0.028269
vt 0.796822 0.014612
vt 0.750000 0.010000
vt 0.703178 0.014612
vt 0.658156 0.028269
vt 0.616663 0.050447
vt 0.580294 0.080294
vt 0.550447 0.116663
vt 0.528269 0.158156
vt 0.514612 0.203178
vt 0.510000 0.250000
vt 0.514612 0.296822
vt 0.528269 0.341844
vt 0.550447 0.383337
vt 0.580294 0.419706
vt 0.616663 0.449553
vt 0.658156 0.471731
vn 0.0878 0.4455 -0.8910
vn 0.2599 0.4455 -0.8567
vn 0.4220 0.4455 -0.7896
vn 0.5680 0.4455 -0.6921
vn 0.6921 0.4455 -0.5680
vn 0.7896 0.4455 -0.4220
vn 0.8567 0.4455 -0.2599
vn 0.8910 0.4455 -0.0878
vn 0.8910 0.4455 0.0878
vn 0.8567 0.4455 0.2599
vn 0.7896 0.4455 0.4220
vn 0.6921 0.4455 0.5680
vn 0.5680 0.4455 0.6921
vn 0.4220 0.4455 0.7896
vn 0.2599 0.4455 0.8567
vn 0.0878 0.4455 0.8910
vn -0.0878 0.4455 0.8910
vn -0.2599 0.4455 0.8567
vn -0.4220 0.4455 0.7896
vn -0.5680 0.4455 0.6921
vn -0.6921 0.4455 0.5680
vn -0.7896 0.4455 0.4220
vn -0.8567 0.4455 0.2599
vn -0.8910 0.4455 0.0878
vn -0.8910 0.4455 -0.0878
vn -0.8567 0.4455 -0.2599
vn -0.7896 0.4455 -0.4220
vn -0.6921 0.4455 -0.5680
vn -0.5680 0.4455 -0.6921
vn -0.4220 0.4455 -0.7896
vn 0.0000 -1.0000 0.0000
vn -0.2599 0.4455 -0.8567
vn -0.0878 0.4455 -0.8910
vn 0.0980 0.0000 -0.9952
vn 0.2903 0.0000 -0.9569
vn 0.4714 0.0000 -0.8819
vn 0.6344 0.0000 -0.7730
vn 0.7730 0.0000 -0.6344
vn 0.8819 0.0000 -0.4714
vn 0.9569 0.0000 -0.2903
vn 0.9952 0.0000 -0.0980
vn 0.9952 0.0000 0.0980
vn 0.9569 0.0000 0.2903
vn 0.8819 0.0000 0.4714
vn 0.7730 0.0000 0.6344
vn 0.6344 0.0000 0.7730
vn 0.4714 0.0000 0.8819
vn 0.2903 0.0000 0.9569
vn 0.0980 0.0000 0.9952
vn -0.0980 0.0000 0.9952
vn -0.2903 0.0000 0.9569
vn -0.4714 0.0000 0.8819
vn -0.6344 0.0000 0.7730
vn -0.7730 0.0000 0.6344
vn -0.8819 0.0000 0.4714
vn -0.9569 0.0000 0.2903
vn -0.9952 0.0000 0.0980
vn -0.9952 0.0000 -0.0980
vn -0.9569 0.0000 -0.2903
vn -0.8819 0.0000 -0.4714
vn -0.7730 0.0000 -0.6344
vn -0.6344 0.0000 -0.7730
vn -0.4714 0.0000 -0.8819
vn -0.2903 0.0000 -0.9569
vn -0.0980 0.0000 -0.9952
usemtl Material.001
s off
f 97/1/1 5/2/1 1/3/1
f 97/1/2 8/4/2 5/2/2
f 97/1/3 12/5/3 8/4/3
f 97/1/4 15/6/4 12/5/4
f 97/1/5 19/7/5 15/6/5
f 97/1/6 22/8/6 19/7/6
f 97/1/7 28/9/7 22/8/7
f 97/1/8 30/10/8 28/9/8
f 35/11/9 30/10/9 97/1/9
f 36/12/10 35/11/10 97/1/10
f 40/13/11 36/12/11 97/1/11
f 43/14/12 40/13/12 97/1/12
f 97/1/13 47/15/13 43/14/13
f 97/1/14 52/16/14 47/15/14
f 97/1/15 56/17/15 52/16/15
f 97/1/16 59/18/16 56/17/16
f 62/19/17 59/18/17 97/1/17
f 66/20/18 62/19/18 97/1/18
f 70/21/19 66/20/19 97/1/19
f 71/22/20 70/21/20 97/1/20
f 71/22/21 97/1/21 76/23/21
f 76/23/22 97/1/22 78/24/22
f 78/24/23 97/1/23 79/25/23
f 79/25/24 97/1/24 81/26/24
f 97/1/25 83/27/25 81/26/25
f 97/1/26 86/28/26 83/27/26
f 97/1/27 88/29/27 86/28/27
f 97/1/28 90/30/28 88/29/28
f 90/30/29 97/1/29 91/31/29
f 91/31/30 97/1/30 93/32/30
f 116/33/31 115/34/31 79/35/31 81/36/31 83/37/31 86/38/31 88/39/31 90/40/31 91/41/31 93/42/31 96/43/31 129/44/31 123/45/31 124/46/31 118/47/31 119/48/31 120/49/31 117/50/31
f 129/44/31 96/43/31 1/51/31 5/52/31 8/53/31 12/54/31 15/55/31 19/56/31 22/57/31 28/58/31 30/59/31 35/60/31 36/61/31 40/62/31 43/63/31 47/64/31 52/65/31 56/66/31 59/67/31 62/68/31 66/69/31 70/70/31 71/71/31 76/72/31 78/73/31 79/35/31 115/34/31 114/74/31 122/75/31 121/76/31 128/77/31 127/78/31 126/79/31 125/80/31 101/81/31 100/82/31 99/83/31 110/84/31 109/85/31 107/86/31 106/87/31 105/88/31 104/89/31 108/90/31 111/91/31 112/92/31 113/93/31 103/94/31 102/95/31 98/96/31
f 93/32/32 97/1/32 96/97/32
f 96/97/33 97/1/33 1/3/33
f 6/98/1 3/99/1 98/100/1 102/101/1
f 103/102/2 10/103/2 6/98/2 102/101/2
f 113/104/3 13/105/3 10/103/3 103/102/3
f 112/106/4 17/107/4 13/105/4 113/104/4
f 21/108/5 17/107/5 112/106/5 111/109/5
f 25/110/6 21/108/6 111/109/6 108/111/6
f 26/112/7 25/110/7 108/111/7 104/113/7
f 105/114/8 31/115/8 26/112/8 104/113/8
f 106/116/9 33/117/9 31/115/9 105/114/9
f 38/118/10 33/117/10 106/116/10 107/119/10
f 42/120/11 38/118/11 107/119/11 109/121/11
f 45/122/12 42/120/12 109/121/12 110/123/12
f 49/124/13 45/122/13 110/123/13 99/125/13
f 50/126/14 49/124/14 99/125/14 100/127/14
f 54/128/15 50/126/15 100/127/15 101/129/15
f 125/130/16 57/131/16 54/128/16 101/129/16
f 126/132/17 61/133/17 57/131/17 125/130/17
f 64/134/18 61/133/18 126/132/18 127/135/18
f 68/136/19 64/134/19 127/135/19 128/137/19
f 73/138/20 68/136/20 128/137/20 121/139/20
f 122/140/21 75/141/21 73/138/21 121/139/21
f 114/142/22 77/143/22 75/141/22 122/140/22
f 115/144/23 80/145/23 77/143/23 114/142/23
f 82/146/24 80/145/24 115/144/24 116/147/24
f 84/148/25 82/146/25 116/147/25 117/149/25
f 120/150/26 85/151/26 84/148/26 117/149/26
f 119/152/27 87/153/27 85/151/27 120/150/27
f 118/154/28 89/155/28 87/153/28 119/152/28
f 124/156/29 92/157/29 89/155/29 118/154/29
f 123/158/30 94/159/30 92/157/30 124/156/30
f 95/160/31 3/161/31 6/162/31 10/163/31 13/164/31 17/165/31 21/166/31 25/167/31 26/168/31 31/169/31 33/170/31 38/171/31 42/172/31 45/173/31 49/174/31 50/175/31 133/176/31 135/177/31 143/178/31 137/179/31 144/180/31 140/181/31 139/182/31 141/183/31 142/184/31 138/185/31 145/186/31 134/187/31 136/188/31 131/189/31 132/190/31 130/191/31 160/192/31 94/193/31
f 50/175/31 54/194/31 57/195/31 61/196/31 64/197/31 68/198/31 73/199/31 75/200/31 77/201/31 80/202/31 82/203/31 84/204/31 85/205/31 87/206/31 89/207/31 92/208/31 94/193/31 160/192/31 155/209/31 161/210/31 150/211/31 153/212/31 147/213/31 146/214/31 148/215/31 152/216/31 149/217/31 151/218/31 154/219/31 159/220/31 156/221/31 158/222/31 157/223/31 133/176/31
f 129/224/32 95/225/32 94/159/32 123/158/32
f 3/99/33 95/225/33 129/224/33 98/100/33
f 131/226/34 4/227/34 2/228/34 132/229/34
f 136/230/35 7/231/35 4/227/35 131/226/35
f 134/232/36 9/233/36 7/231/36 136/230/36
f 145/234/37 11/235/37 9/233/37 134/232/37
f 138/236/38 14/237/38 11/235/38 145/234/38
f 142/238/39 16/239/39 14/237/39 138/236/39
f 141/240/40 18/241/40 16/239/40 142/238/40
f 139/242/41 20/243/41 18/241/41 141/240/41
f 140/244/42 23/245/42 20/243/42 139/242/42
f 144/246/43 24/247/43 23/245/43 140/244/43
f 137/248/44 27/249/44 24/247/44 144/246/44
f 143/250/45 29/251/45 27/249/45 137/248/45
f 135/252/46 32/253/46 29/251/46 143/250/46
f 133/254/47 34/255/47 32/253/47 135/252/47
f 157/256/48 37/257/48 34/255/48 133/254/48
f 158/258/49 39/259/49 37/257/49 157/256/49
f 156/260/50 41/261/50 39/259/50 158/258/50
f 159/262/51 44/263/51 41/261/51 156/260/51
f 154/264/52 46/265/52 44/263/52 159/262/52
f 151/266/53 48/267/53 46/265/53 154/264/53
f 149/268/54 51/269/54 48/267/54 151/266/54
f 152/270/55 53/271/55 51/269/55 149/268/55
f 148/272/56 55/273/56 53/271/56 152/270/56
f 146/274/57 58/275/57 55/273/57 148/272/57
f 147/276/58 60/277/58 58/275/58 146/274/58
f 153/278/59 63/279/59 60/277/59 147/276/59
f 150/280/60 65/281/60 63/279/60 153/278/60
f 161/282/61 67/283/61 65/281/61 150/280/61
f 155/284/62 69/285/62 67/283/62 161/282/62
f 160/286/63 72/287/63 69/285/63 155/284/63
f 130/288/64 74/289/64 72/287/64 160/286/64
f 132/290/65 2/291/65 74/289/65 130/288/65
f 74/292/31 2/293/31 4/294/31 7/295/31 9/296/31 11/297/31 14/298/31 16/299/31 18/300/31 20/301/31 23/302/31 24/303/31 27/304/31 29/305/31 32/306/31 34/307/31 37/308/31 39/309/31 41/310/31 44/311/31 46/312/31 48/313/31 51/314/31 53/315/31 55/316/31 58/317/31 60/318/31 63/319/31 65/320/31 67/321/31 69/322/31 72/323/31
